<svg fill="none" height="32" viewBox="0 0 32 32" width="32" xmlns="http://www.w3.org/2000/svg"><g fill="#212121"><path d="m19.5882 17.0583.1771-.8854c.0469-.2346.025-.4676-.0521-.6776-.1387-.3777-.4562-.681-.8737-.7854-1.5876-.3969-3.2377-.4558-4.8439-.1767-.28.0486-.5586.1075-.8353.1767-.6497.1624-1.0572.8064-.9259 1.463l.1771.8854c.3421 1.7105 1.844 2.9417 3.5884 2.9417 1.7443 0 3.2462-1.2312 3.5883-2.9417z"/><path d="m10.9999 12s0 1.299.6621 2.5728c.3003-.4001.7347-.7028 1.2558-.833 2.0236-.5059 4.1406-.5059 6.1642 0 .5211.1302.9555.4329 1.2558.833.6621-1.2738.6621-2.5728.6621-2.5728z"/><path d="m19.4999 10c.8284 0 1.5-.67157 1.5-1.5s-.6716-1.5-1.5-1.5-1.5.67157-1.5 1.5.6716 1.5 1.5 1.5z"/><path d="m11.7235 7.05279c-.247-.1235-.5473-.02339-.6708.2236s-.0234.54733.2236.67082l1.1056.55279-1.1056.55279c-.247.12349-.3471.42383-.2236.67082s.4238.34709.6708.2236l2-1c.1694-.08469.2764-.25782.2764-.44721s-.107-.36252-.2764-.44721z"/><path d="m4.97572 10.3312c.79385-5.3668 5.50138-9.3312 11.03018-9.3312 5.5271 0 10.2475 3.96311 11.0305 9.3332.0015.0106.0029.0212.0041.0317l.1852 1.6351h2.0242c1.5347 0 2.2944 1.8598 1.2171 2.9371l-2.6125 2.6125 1.1144 9.8351c.26 1.8326-1.1351 3.5192-3.0092 3.6061l-.0036.0001c-1.1903.051-2.4085-.3574-3.3379-1.2623-.9567-.9316-2.5247-.9316-3.4814 0-1.7333 1.6877-4.5388 1.6877-6.272 0-.9567-.9316-2.5248-.9316-3.4815 0-1.01918.9924-2.39429 1.4016-3.70819 1.2353-1.78543-.2267-2.88077-1.9285-2.64219-3.5617l1.11702-9.8179-2.64717-2.6472c-1.077275-1.0773-.3176-2.9371 1.21711-2.9371h2.06541l.18608-1.6355c.00126-.0111.00272-.0222.00435-.0333zm1.98088.2765-.28504 2.5053c-.05749.5053-.48505.887-.99359.887h-2.28388l2.51106 2.5111c.21546.2154.32093.5174.28649.8201l-1.17352 10.3144c-.00145.0128-.00316.0256-.00511.0383-.09798.6398.3454 1.2237.91368 1.2959.73933.0935 1.49953-.1371 2.06134-.6841 1.73321-1.6877 4.53877-1.6877 6.27197 0 .9567.9315 2.5248.9315 3.4815 0 1.7332-1.6877 4.5388-1.6877 6.272 0 .5075.4942 1.1776.7256 1.8551.6971.7061-.0336 1.2166-.6749 1.1191-1.3339-.0016-.0113-.0031-.0225-.0044-.0338l-1.1703-10.3292c-.0343-.3026.0712-.6044.2865-.8197l2.4762-2.4762h-2.2431c-.5087 0-.9363-.3819-.9936-.8874l-.284-2.5062c-.6406-4.33936-4.4791-7.6064-9.0491-7.6064-4.568 0-8.39871 3.26539-9.0493 7.6077z"/></g></svg>